<svg width="166" height="44" viewBox="0 0 166 44" fill="none" xmlns="http://www.w3.org/2000/svg">
<g clip-path="url(#clip0)">
<path d="M81.0448 28.6306C80.8866 28.9829 80.0597 30.5788 77.9891 30.5788C75.591 30.5788 74.6557 28.5879 74.6557 27.1085C74.6557 24.6626 76.3014 22.4648 78.7241 22.4648C81.3318 22.4648 81.9533 24.4087 82.0133 24.761H85.8483C86.0781 23.3257 84.9405 18.9374 78.8715 18.9374C74.4324 18.9374 70.8808 22.4865 70.8808 27.23C70.8808 31.1112 73.3042 34.104 77.7954 34.104C83.3931 34.104 84.9043 29.7092 85.0894 28.6306H81.0448V28.6306Z" fill="black"/>
<path d="M51.6122 29.6998C51.6122 29.4755 51.6715 29.0516 51.8688 28.1603C52.0596 27.2669 54.7692 14.7726 54.7692 14.7726H51.1699L48.1835 28.5553C48.0577 29.1348 48.0035 29.7063 48.0035 30.2112C48.0035 33.2337 50.3394 34.1221 52.2092 34.1221C52.8785 34.1221 53.4993 34.0107 53.6547 33.9904C53.714 33.688 54.2784 31.0931 54.3059 30.9795C54.2249 30.9853 53.8282 31.015 53.3678 31.015C52.03 31.0157 51.6122 30.4471 51.6122 29.6998Z" fill="black"/>
<path d="M97.7089 18.9851L91.2605 24.7971L93.4338 14.7429H89.8085L85.6924 33.8175H89.3149L90.3159 29.1825L92.5449 27.4065L95.6267 33.8175H99.6596L95.2862 25.2312L102.73 18.9851H97.7089Z" fill="black"/>
<path d="M31.8268 27.9226C32.1282 26.5554 34.6817 14.7498 34.6817 14.7498C34.6817 14.7498 39.0818 14.7498 41.5399 14.7498C46.516 14.7498 47.7404 17.5183 47.7404 19.1981C47.7404 22.9143 44.2336 23.8982 43.8043 24.0328C44.204 24.1644 46.4799 25.0673 46.4799 27.9856C46.4799 31.1607 43.5556 33.8207 39.0218 33.8207C39.0218 33.8207 37.3956 33.8207 36.954 33.8207C33.1466 33.8214 31.1019 31.2048 31.8268 27.9226V27.9226ZM42.5647 27.689C42.5647 26.7926 41.988 25.6554 39.4273 25.6554H36.1019L35.106 30.2687H38.8708C41.3072 30.2687 42.5647 29.1698 42.5647 27.689V27.689ZM43.7985 20.0033C43.7985 19.0758 43.0931 18.2779 41.3657 18.2779H37.6963L36.8644 22.1287H40.6878C42.7469 22.128 43.7985 21.1333 43.7985 20.0033V20.0033Z" fill="black"/>
<path d="M101.079 27.9216C101.381 26.5543 103.934 14.7487 103.934 14.7487C103.934 14.7487 108.334 14.7487 110.795 14.7487C115.771 14.7487 116.996 17.5173 116.996 19.1971C116.996 22.9133 113.489 23.8972 113.059 24.0317C113.453 24.1634 115.736 25.0662 115.736 27.9845C115.736 31.1596 112.808 33.8197 108.274 33.8197C108.274 33.8197 106.649 33.8197 106.207 33.8197C102.399 33.8204 100.353 31.2038 101.079 27.9216V27.9216ZM111.817 27.6879C111.817 26.7916 111.239 25.6544 108.68 25.6544H105.352L104.357 30.2677H108.124C110.559 30.2677 111.817 29.1688 111.817 27.6879ZM113.05 20.0022C113.05 19.0748 112.347 18.2769 110.616 18.2769H106.948L106.117 22.1277H109.941C111.999 22.1269 113.05 21.1322 113.05 20.0022V20.0022Z" fill="black"/>
<path d="M141.882 18.9938C138.042 18.9938 135.43 21.269 134.549 25.5386C134.171 27.3739 132.778 33.8255 132.778 33.8255H136.375C136.375 33.8255 137.7 27.6908 138.12 25.7629C138.669 23.2359 140.004 22.378 141.798 22.378C142.379 22.378 142.748 22.4438 142.937 22.4706C143.036 21.962 143.537 19.681 143.657 19.1218C143.268 19.0719 142.653 18.9938 141.882 18.9938V18.9938Z" fill="black"/>
<path d="M154.123 39.5L166.196 18.9938H162.31L156.762 28.6443L155.466 18.9822C155.466 18.9822 153.489 18.9822 151.309 18.9822C146.548 18.9822 144.08 21.1619 143.205 25.3324C142.766 27.4137 141.371 33.8254 141.371 33.8254H144.97C144.97 33.8254 146.29 27.7356 146.816 25.2782C147.324 22.8923 149.092 22.1631 150.998 22.5696L151.756 19.069C152.318 22.3939 154.035 33.0159 154.035 33.0159L150.268 39.5H154.123V39.5Z" fill="black"/>
<path d="M62.0029 27.4998C62.795 27.3826 65.1129 27.0246 65.4287 26.9797C65.3695 27.2271 65.2762 27.6228 65.2076 27.9151C64.7891 29.7085 62.9641 30.8602 60.9513 30.8602C59.667 30.8602 58.9167 30.1686 58.9167 29.3468C58.9175 28.6682 59.539 27.8644 62.0029 27.4998ZM60.6564 23.6375C60.7453 23.4906 61.6711 22.0618 63.9774 22.0618C65.4114 22.0618 66.1464 22.5856 66.1464 23.2193C66.1464 24.1135 64.7009 24.3464 62.1973 24.7052C57.8962 25.3274 55.1779 26.6636 55.1779 29.7728C55.1779 31.9764 57.0058 34.1235 60.2524 34.1235C62.9497 34.1235 64.3598 32.4937 64.4848 32.3685C64.4971 32.7599 64.5477 33.3459 64.5896 33.8182C64.8852 33.8182 67.3794 33.8182 68.3089 33.8182C68.1802 33.1751 67.9143 31.9402 68.3559 29.9646C68.5893 28.9243 69.2456 25.9343 69.5802 24.2842C70.2169 21.1626 68.5055 18.9562 64.1198 18.9562C58.4809 18.9562 56.8562 23.0132 56.5931 23.6382H60.6564V23.6375Z" fill="black"/>
<path d="M127.486 29.3743C127.354 29.6644 126.479 30.8869 124.523 30.8869C121.705 30.8869 121.064 28.496 121.129 27.8406C122.633 27.8406 131.318 27.8406 132.104 27.8406C132.166 27.5722 132.414 26.5941 132.414 25.59C132.414 22.1154 130.061 18.9381 125.315 18.9381C120.975 18.9381 117.492 22.5914 117.492 26.9298C117.492 31.1271 120.011 34.1047 124.463 34.1047C129.966 34.1047 131.448 29.791 131.59 29.375C130.61 29.3743 127.486 29.3743 127.486 29.3743V29.3743ZM125.353 22.2319C127.776 22.2319 128.702 23.712 128.603 24.8991C127.211 24.8991 123.071 24.8991 121.673 24.8991C121.852 24.1453 123.008 22.2319 125.353 22.2319V22.2319Z" fill="black"/>
<path d="M9.06181 12.5719C9.06181 11.6575 8.5024 10.5 6.15129 10.5C5.18641 10.5 2.53103 10.5 2.53103 10.5L1.50183 15.2659C1.50183 15.2659 3.45832 15.2659 5.27604 15.2659C8.22269 15.2659 9.06181 13.8697 9.06181 12.5719V12.5719Z" fill="black"/>
<path d="M18.8144 12.5719C18.8144 11.6575 18.2564 10.5 15.906 10.5C14.9404 10.5 12.285 10.5 12.285 10.5L11.2566 15.2652C11.2566 15.2652 13.2123 15.2652 15.0286 15.2652C17.9767 15.2659 18.8144 13.8697 18.8144 12.5719V12.5719Z" fill="black"/>
<path d="M7.75559 19.7447C7.75559 18.8303 7.19618 17.6699 4.84507 17.6699C3.8802 17.6699 1.22481 17.6699 1.22481 17.6699L0.195618 22.4387C0.195618 22.4387 2.1521 22.4387 3.96838 22.4387C6.91576 22.4387 7.75559 21.0389 7.75559 19.7447Z" fill="black"/>
<path d="M17.5084 19.7447C17.5084 18.8303 16.9482 17.6699 14.5993 17.6699C13.633 17.6699 10.979 17.6699 10.979 17.6699L9.94839 22.4387C9.94839 22.4387 11.9049 22.4387 13.7226 22.4387C16.6707 22.4387 17.5084 21.0389 17.5084 19.7447V19.7447Z" fill="black"/>
<path d="M27.7113 16.8358C27.7113 15.9206 27.1511 14.761 24.8022 14.761C23.8359 14.761 21.1819 14.761 21.1819 14.761L20.1513 19.5291C20.1513 19.5291 22.1092 19.5291 23.9241 19.5291C26.8722 19.5291 27.7113 18.1329 27.7113 16.8358V16.8358Z" fill="black"/>
<path d="M26.3044 24.3037C26.3044 23.3886 25.7458 22.2318 23.3954 22.2318C22.4305 22.2318 19.7751 22.2318 19.7751 22.2318L18.7459 26.9977C18.7459 26.9977 20.701 26.9977 22.5187 26.9977C25.466 26.9977 26.3044 25.5979 26.3044 24.3037Z" fill="black"/>
<path d="M16.1067 27.2134C16.1067 26.2946 15.5488 25.1349 13.1998 25.1349C12.2328 25.1349 9.57742 25.1349 9.57742 25.1349L8.54822 29.9031C8.54822 29.9031 10.5047 29.9031 12.321 29.9031C15.2691 29.9038 16.1067 28.5076 16.1067 27.2134V27.2134Z" fill="black"/>
</g>
<defs>
<clipPath id="clip0">
<rect width="166" height="43" fill="white" transform="translate(0 0.5)"/>
</clipPath>
</defs>
</svg>
