<svg width="179" height="44" viewBox="0 0 179 44" fill="none" xmlns="http://www.w3.org/2000/svg">
<g clip-path="url(#clip0)">
<path d="M102.453 30.1417H103.167V33.5667H102.453C98.505 33.5667 95.3179 30.3796 95.3179 26.4314V11.4947H98.7428V15.9662H103.167V19.3912H98.7428V26.4314C98.7428 28.4768 100.408 30.1417 102.453 30.1417ZM143.933 30.4747C140.794 30.4747 138.225 27.906 138.225 24.7664C138.225 21.6269 140.794 19.0582 143.933 19.0582C147.073 19.0582 149.642 21.6269 149.642 24.7664C149.642 27.906 147.073 30.4747 143.933 30.4747ZM143.933 15.6332C138.891 15.6332 134.8 19.7241 134.8 24.7664C134.8 29.8087 138.891 33.8997 143.933 33.8997C148.976 33.8997 153.066 29.8087 153.066 24.7664C153.066 19.7241 148.976 15.6332 143.933 15.6332ZM170.286 30.4747C167.147 30.4747 164.578 27.906 164.578 24.7664C164.578 21.6269 167.147 19.0582 170.286 19.0582C173.426 19.0582 175.995 21.6269 175.995 24.7664C175.995 27.906 173.378 30.4747 170.286 30.4747ZM170.286 15.6332C165.244 15.6332 161.153 19.7241 161.153 24.7664C161.153 29.8087 165.244 33.8997 170.286 33.8997C172.522 33.8997 174.568 33.091 176.137 31.7591V33.5667H179.42V25.0519C179.42 24.9567 179.42 24.8616 179.42 24.7664C179.42 19.7241 175.281 15.6332 170.286 15.6332ZM132.041 15.9662H133.658V19.3912H132.041C129.996 19.3912 128.331 21.0561 128.331 23.1015V25.3373V29.5709V33.5667H124.906V23.1015C124.906 19.1533 128.093 15.9662 132.041 15.9662ZM155.35 11.4947H158.775V33.8997H155.35V11.4947ZM72.4848 22.721V33.5667H69.0599V22.721C69.0599 20.6755 67.3949 19.0106 65.3495 19.0106C63.304 19.0106 61.6391 20.6755 61.6391 22.721V33.5667H58.2142V22.721C58.2142 20.6755 56.5492 19.0106 54.5038 19.0106C52.4583 19.0106 50.7934 20.6755 50.7934 22.721V33.5667H47.3685V22.721C47.3685 18.7728 50.5556 15.5857 54.5038 15.5857C56.692 15.5857 58.6423 16.537 59.9266 18.1068C61.2586 16.5846 63.2089 15.5857 65.3495 15.5857C69.2501 15.5857 72.4848 18.7728 72.4848 22.721ZM83.9489 30.4747C80.8094 30.4747 78.2407 27.906 78.2407 24.7664C78.2407 21.6269 80.8094 19.0582 83.9489 19.0582C87.0885 19.0582 89.6572 21.6269 89.6572 24.7664C89.6572 27.906 87.0409 30.4747 83.9489 30.4747ZM83.9489 15.6332C78.859 15.6332 74.7681 19.7241 74.7681 24.7664C74.7681 29.8087 78.859 33.8997 83.9013 33.8997C88.9436 33.8997 93.0346 29.8087 93.0346 24.7664C93.0821 19.7241 88.9437 15.6332 83.9489 15.6332ZM113.442 30.4747C110.302 30.4747 107.733 27.906 107.733 24.7664C107.733 21.6269 110.302 19.0582 113.442 19.0582C116.581 19.0582 119.15 21.6269 119.15 24.7664C119.15 27.906 116.581 30.4747 113.442 30.4747ZM113.442 15.6332C108.399 15.6332 104.308 19.7241 104.308 24.7664C104.308 29.8087 108.399 33.8997 113.442 33.8997C118.484 33.8997 122.575 29.8087 122.575 24.7664C122.575 19.7241 118.484 15.6332 113.442 15.6332ZM29.2923 33.424C27.6274 28.0487 25.5343 24.7664 23.1083 24.7664C21.158 24.7664 19.3028 26.9546 17.8282 30.7601C16.306 26.9546 14.4984 24.7664 12.5005 24.7664C10.122 24.7664 7.98142 28.0487 6.31651 33.424H5.07972L12.3578 11.0666L17.7806 27.8109L23.2035 11.0666L30.4815 33.4715H29.2923V33.424ZM17.7806 6.5C7.69601 6.5 -0.48584 14.6818 -0.48584 24.7664C-0.48584 34.851 7.69601 43.0329 17.7806 43.0329C27.8652 43.0329 36.0471 34.851 36.0471 24.7664C36.0471 14.7294 28.0079 6.5 17.7806 6.5Z" fill="black"/>
</g>
<defs>
<clipPath id="clip0">
<rect width="179" height="43" fill="white" transform="translate(0 0.5)"/>
</clipPath>
</defs>
</svg>
