<svg width="116" height="44" viewBox="0 0 116 44" fill="none" xmlns="http://www.w3.org/2000/svg">
<path d="M49.9329 25.4714C49.9329 30.9464 45.6856 34.9809 40.4731 34.9809C35.2606 34.9809 31.0132 30.9464 31.0132 25.4714C31.0132 19.9578 35.2606 15.9619 40.4731 15.9619C45.6856 15.9619 49.9329 19.9578 49.9329 25.4714ZM45.7919 25.4714C45.7919 22.05 43.3302 19.7091 40.4731 19.7091C37.616 19.7091 35.1543 22.05 35.1543 25.4714C35.1543 28.8585 37.616 31.2337 40.4731 31.2337C43.3302 31.2337 45.7919 28.8542 45.7919 25.4714Z" fill="#EA4335"/>
<path d="M70.3406 25.4714C70.3406 30.9464 66.0933 34.9809 60.8808 34.9809C55.6683 34.9809 51.4209 30.9464 51.4209 25.4714C51.4209 19.9621 55.6683 15.9619 60.8808 15.9619C66.0933 15.9619 70.3406 19.9578 70.3406 25.4714ZM66.1996 25.4714C66.1996 22.05 63.7379 19.7091 60.8808 19.7091C58.0237 19.7091 55.562 22.05 55.562 25.4714C55.562 28.8585 58.0237 31.2337 60.8808 31.2337C63.7379 31.2337 66.1996 28.8542 66.1996 25.4714Z" fill="#FBBC05"/>
<path d="M89.8982 16.5364V33.6089C89.8982 40.6317 85.7912 43.5 80.9358 43.5C76.3653 43.5 73.6145 40.4173 72.5771 37.8963L76.1825 36.3829C76.8245 37.9306 78.3976 39.7571 80.9316 39.7571C84.0395 39.7571 85.9655 37.8234 85.9655 34.1834V32.8157H85.8209C84.8941 33.9691 83.1084 34.9766 80.855 34.9766C76.14 34.9766 71.8203 30.835 71.8203 25.5057C71.8203 20.1379 76.14 15.9619 80.855 15.9619C83.1041 15.9619 84.8898 16.9695 85.8209 18.0885H85.9655V16.5407H89.8982V16.5364ZM86.2588 25.5057C86.2588 22.1572 84.0438 19.7091 81.2249 19.7091C78.3678 19.7091 75.9742 22.1572 75.9742 25.5057C75.9742 28.8199 78.3678 31.2337 81.2249 31.2337C84.0438 31.2337 86.2588 28.8199 86.2588 25.5057Z" fill="#4285F4"/>
<path d="M96.3823 6.52966V34.3979H92.3433V6.52966H96.3823Z" fill="#34A853"/>
<path d="M112.122 28.6012L115.336 30.7621C114.299 32.3098 111.799 34.9766 107.479 34.9766C102.122 34.9766 98.1211 30.8007 98.1211 25.4671C98.1211 19.812 102.156 15.9576 107.016 15.9576C111.909 15.9576 114.303 19.8849 115.085 22.0072L115.515 23.0876L102.908 28.3526C103.874 30.2605 105.374 31.2337 107.479 31.2337C109.588 31.2337 111.05 30.1876 112.122 28.6012ZM102.228 25.1799L110.655 21.6513C110.191 20.4637 108.797 19.6362 107.156 19.6362C105.051 19.6362 102.122 21.5098 102.228 25.1799V25.1799Z" fill="#EA4335"/>
<path d="M15.724 22.9976V18.9631H29.2059C29.3377 19.6662 29.4057 20.498 29.4057 21.3984C29.4057 24.4253 28.5852 28.1682 25.9407 30.835C23.3684 33.536 20.0819 34.9766 15.7282 34.9766C7.65865 34.9766 0.873047 28.3483 0.873047 20.2107C0.873047 12.0732 7.65865 5.44489 15.7282 5.44489C20.1925 5.44489 23.3727 7.2113 25.7621 9.51364L22.939 12.3605C21.2256 10.7398 18.9042 9.47934 15.724 9.47934C9.83123 9.47934 5.22247 14.2684 5.22247 20.2107C5.22247 26.1531 9.83123 30.9421 15.724 30.9421C19.5462 30.9421 21.723 29.3944 23.1176 27.9881C24.2485 26.8477 24.9925 25.2184 25.2859 22.9933L15.724 22.9976Z" fill="#4285F4"/>
</svg>
