<svg width="145" height="44" viewBox="0 0 145 44" fill="none" xmlns="http://www.w3.org/2000/svg">
<path d="M119.863 29.2995L119.582 12.8708H124.699V33.5792H117.342L112.233 16.5858H112.122L112.407 33.5792H107.319V12.8708H114.998L119.751 29.2995H119.863Z" fill="#034EA2"/>
<path d="M26.8272 14.8119L23.9961 33.7968H18.4122L22.2436 12.8708H31.4398L35.2588 33.7968H29.6956L26.943 14.8119H26.8272Z" fill="#034EA2"/>
<path d="M50.9363 28.8686L53.4905 12.8708H61.9221L62.3684 33.7968H57.2021L57.0657 14.9835H56.9582L53.5029 33.7968H48.258L44.7986 14.9835H44.687L44.5589 33.7968H39.3801L39.8389 12.8708H48.2746L50.8247 28.8686H50.9363Z" fill="#034EA2"/>
<path d="M9.70766 27.8938C9.91018 28.4 9.84818 29.0527 9.75312 29.4459C9.57953 30.1404 9.11249 30.8516 7.7403 30.8516C6.4425 30.8516 5.65721 30.0985 5.65721 28.9523V26.9274H0.11058L0.106445 28.5464C0.106445 33.2111 3.73531 34.6209 7.62457 34.6209C11.365 34.6209 14.4442 33.3282 14.9319 29.8392C15.184 28.0319 14.9939 26.8479 14.9112 26.4003C14.0392 22.0201 6.19038 20.7107 5.60761 18.2633C5.50842 17.845 5.53735 17.3974 5.58695 17.1589C5.73161 16.4937 6.18212 15.7574 7.47578 15.7574C8.68265 15.7574 9.39767 16.5146 9.39767 17.6567C9.39767 18.0416 9.39767 18.9494 9.39767 18.9494H14.5517V17.481C14.5517 12.921 10.5095 12.2098 7.58324 12.2098C3.90477 12.2098 0.900003 13.4397 0.3503 16.8451C0.201508 17.7864 0.180841 18.6231 0.395763 19.6732C1.30091 23.9446 8.64131 25.1829 9.70766 27.8938Z" fill="#034EA2"/>
<path d="M76.9331 27.8562C77.1356 28.3582 77.0695 28.9941 76.9785 29.3874C76.8091 30.0818 76.3462 30.7805 74.9822 30.7805C73.7051 30.7805 72.924 30.0274 72.924 28.9063L72.9198 26.8982H67.4311L67.4228 28.4963C67.4228 33.1149 71.0186 34.508 74.8665 34.508C78.5656 34.508 81.6159 33.232 82.0995 29.7764C82.3516 27.9817 82.1739 26.8145 82.0829 26.3752C81.215 22.0369 73.4489 20.74 72.8702 18.3136C72.771 17.8952 72.8 17.4559 72.8496 17.23C72.9984 16.5565 73.4406 15.8411 74.7219 15.8411C75.9205 15.8411 76.619 16.5774 76.619 17.7153C76.619 18.096 76.619 18.9955 76.619 18.9955H81.7357V17.5396C81.7357 13.0298 77.7266 12.3228 74.8252 12.3228C71.188 12.3228 68.2081 13.536 67.6708 16.9205C67.522 17.8492 67.5055 18.6692 67.7204 19.715C68.609 23.9446 75.8791 25.1745 76.9331 27.8562Z" fill="#034EA2"/>
<path d="M94.296 30.6674C95.7301 30.6674 96.1765 29.6634 96.2757 29.1488C96.317 28.9229 96.3294 28.6217 96.3253 28.3498V12.8624H101.554V27.8729C101.566 28.2577 101.529 29.0484 101.508 29.2451C101.14 33.1525 98.0901 34.4201 94.2918 34.4201C90.4894 34.4201 87.435 33.1525 87.0713 29.2451C87.0548 29.0484 87.0176 28.2536 87.0258 27.8729V12.8624H92.2501V28.3456C92.2501 28.6175 92.2583 28.9229 92.2997 29.1446C92.4154 29.6592 92.8494 30.6674 94.296 30.6674Z" fill="#034EA2"/>
<path d="M137.426 30.4458C138.922 30.4458 139.447 29.4877 139.542 28.9313C139.579 28.6929 139.591 28.4 139.587 28.1365V25.0992H137.467V22.0453H144.799V27.6637C144.795 28.057 144.787 28.3456 144.725 29.0443C144.382 32.8513 141.116 34.211 137.455 34.211C133.784 34.211 130.528 32.8513 130.176 29.0443C130.118 28.3456 130.11 28.057 130.102 27.6637L130.106 18.8532C130.106 18.4809 130.151 17.8241 130.193 17.4727C130.652 13.5611 133.784 12.3018 137.455 12.3018C141.121 12.3018 144.332 13.5527 144.712 17.4727C144.778 18.1378 144.758 18.8532 144.758 18.8532V19.5519H139.546V18.3805C139.55 18.3847 139.538 17.8826 139.48 17.5856C139.393 17.1212 138.996 16.0586 137.417 16.0586C135.909 16.0586 135.471 17.0627 135.359 17.5856C135.297 17.8617 135.272 18.2341 135.272 18.5729V28.1448C135.268 28.4084 135.285 28.7012 135.326 28.9397C135.409 29.4877 135.929 30.4458 137.426 30.4458Z" fill="#034EA2"/>
</svg>
