<svg width="94" height="34" viewBox="0 0 94 34" fill="none" xmlns="http://www.w3.org/2000/svg">
<path d="M19.7113 26.6249H23.5993L13.6993 1.42488H10.2433L0.343309 26.6249H4.19531L6.60731 20.2169H17.2993L19.7113 26.6249ZM7.86731 16.9409L11.9713 6.10488L16.0753 16.9409H7.86731ZM26.2338 33.9689H29.7258V24.0689C30.7698 25.7969 32.9298 26.9129 35.3418 26.9129C40.8498 26.9129 44.1258 22.9529 44.1258 17.5529C44.1258 12.1529 40.9938 8.19288 35.5218 8.19288C33.0018 8.19288 30.8058 9.38088 29.7258 11.1809V8.48088H26.2338V33.9689ZM35.0178 23.8529C31.6338 23.8529 29.4378 21.3329 29.4378 17.5529C29.4378 13.7729 31.6338 11.2529 35.0178 11.2529C38.3658 11.2529 40.5978 13.7729 40.5978 17.5529C40.5978 21.3329 38.3658 23.8529 35.0178 23.8529ZM47.7142 33.9689H51.2062V24.0689C52.2502 25.7969 54.4102 26.9129 56.8222 26.9129C62.3302 26.9129 65.6062 22.9529 65.6062 17.5529C65.6062 12.1529 62.4742 8.19288 57.0022 8.19288C54.4822 8.19288 52.2862 9.38088 51.2062 11.1809V8.48088H47.7142V33.9689ZM56.4982 23.8529C53.1142 23.8529 50.9182 21.3329 50.9182 17.5529C50.9182 13.7729 53.1142 11.2529 56.4982 11.2529C59.8462 11.2529 62.0782 13.7729 62.0782 17.5529C62.0782 21.3329 59.8462 23.8529 56.4982 23.8529ZM69.1947 26.6249H72.6867V0.884877H69.1947V26.6249ZM90.2716 20.7209C89.7676 22.7729 88.0396 23.9249 85.3756 23.9249C82.2076 23.9249 79.9756 21.5849 79.6876 18.1649H93.5476C93.5836 17.8409 93.6196 17.2649 93.6196 16.7969C93.6196 12.1889 90.6316 8.19288 85.0156 8.19288C79.4356 8.19288 76.2676 12.3689 76.2676 17.4449C76.2676 22.4849 79.7596 26.9129 85.3756 26.9129C89.8396 26.9129 93.1156 24.4649 93.7636 20.7209H90.2716ZM85.0156 11.0009C88.0036 11.0009 89.8756 12.8369 90.0916 15.6089H79.7956C80.3356 12.5849 82.1716 11.0009 85.0156 11.0009Z" fill="#383838"/>
</svg>
