<svg width="84" height="44" viewBox="0 0 84 44" fill="none" xmlns="http://www.w3.org/2000/svg">
<path d="M18.5802 40.8155C28.7257 40.8155 36.9656 32.5999 36.9656 22.4487C36.9656 12.297 28.7257 4.07379 18.5802 4.07379C8.41901 4.07379 0.194824 12.297 0.194824 22.4487C0.194824 32.5999 8.41901 40.8155 18.5802 40.8155Z" fill="#A50034"/>
<path d="M17.8406 14.3848V30.5045H22.9652V29.0551H19.3176V14.3848H17.8406Z" fill="white"/>
<path d="M12.7093 18.783C13.9285 18.783 14.9113 17.7917 14.9113 16.581C14.9113 15.3695 13.9285 14.3743 12.7093 14.3743C11.4901 14.3743 10.5074 15.3695 10.5074 16.581C10.5074 17.7926 11.4901 18.783 12.7093 18.783Z" fill="white"/>
<path d="M19.3172 7.07255C19.125 7.06304 18.7597 7.05115 18.5851 7.05115C10.0988 7.05115 3.19229 13.9601 3.19229 22.4411C3.19229 26.5606 4.79298 30.4217 7.69231 33.3253C10.6035 36.2223 14.4666 37.823 18.5851 37.823C22.6879 37.823 26.55 36.2223 29.456 33.3253C32.3625 30.4217 33.9708 26.5606 33.9708 22.4411V21.7566H33.3481H22.9795V23.1732H32.5047C32.5047 23.2041 32.5047 23.3544 32.498 23.3934C32.0138 30.6439 25.9583 36.3864 18.5851 36.3864C14.8528 36.3864 11.3532 34.9351 8.71932 32.2993C6.07687 29.6744 4.62078 26.1776 4.62078 22.4406C4.62078 18.725 6.07687 15.2102 8.71932 12.5772C11.3532 9.94666 14.8528 8.49534 18.5851 8.49534C18.7459 8.49534 19.1369 8.49534 19.3172 8.50485V7.07255Z" fill="white"/>
<path d="M50.7923 10.2587H45.2676V34.1754H62.2364V29.5198H50.7923V10.2587V10.2587ZM74.3898 25.0612H78.8893V29.243C78.0597 29.5588 76.4419 29.8737 74.9026 29.8737C69.9302 29.8737 68.2739 27.3483 68.2739 22.2189C68.2739 17.3274 69.8512 14.4433 74.8236 14.4433C77.5869 14.4433 79.1652 15.3119 80.4657 16.9697L83.9007 13.8116C81.8086 10.8148 78.1377 9.90717 74.7056 9.90717C66.969 9.90717 62.9052 14.1294 62.9052 22.179C62.9052 30.1896 66.5752 34.5302 74.6666 34.5302C78.3756 34.5302 82.0065 33.5836 83.9787 32.2027V20.6006H74.3898V25.0612Z" fill="#6B6B6B"/>
</svg>
