<svg width="153" height="44" viewBox="0 0 153 44" fill="none" xmlns="http://www.w3.org/2000/svg">
<path d="M63.9272 23.3784H56.1958V16.5565H52.7742V33.4546H56.1958V26.5923H63.9272V33.4546H67.3488V16.5565H63.9272V23.3784Z" fill="black"/>
<path d="M83.1954 26.2285C83.1954 28.9774 81.8429 30.4429 79.3701 30.4429C76.8972 30.4429 75.5145 28.9269 75.5145 26.1072V16.5666H72.0828V26.2285C72.0828 30.9785 74.7272 33.6972 79.3196 33.6972C83.912 33.6972 86.6271 30.928 86.6271 26.087V16.5565H83.1954V26.2285Z" fill="black"/>
<path d="M122.75 28.1689L118.925 16.5565H116.129L112.303 28.1689L108.579 16.5666H104.935L110.81 33.4546H113.646L117.481 22.3577L121.317 33.4546H124.173L130.037 16.5666H126.484L122.75 28.1689Z" fill="black"/>
<path d="M136.174 26.178H142.402V23.1056H136.174V19.6492H145.208V16.5768H132.793V33.4446H145.531V30.3621H136.174V26.178Z" fill="black"/>
<path d="M153 16.5565H149.619V33.4243H153V16.5565Z" fill="black"/>
<path d="M95.7912 16.5565L88.3525 33.4445H91.8548L93.389 29.9275H101.11L102.624 33.4445H106.207L98.799 16.5565H95.7912ZM94.6607 26.8753L97.2345 20.8114L99.8385 26.8753H94.6607Z" fill="black"/>
<mask id="mask0" style="mask-type:alpha" maskUnits="userSpaceOnUse" x="0" y="5" width="45" height="34">
<path d="M41.2075 18.79C41.4598 14.9698 37.6042 11.4224 37.6042 11.4224C32.7369 17.5964 28.6013 24.315 25.2804 31.4434C25.2582 31.4744 25.2463 31.5115 25.2463 31.5495C25.2463 31.5876 25.2582 31.6247 25.2804 31.6557C25.3116 31.6716 25.3462 31.68 25.3813 31.68C25.4164 31.68 25.451 31.6716 25.4822 31.6557C27.4302 30.645 35.5755 26.5013 38.9466 23.247C40.2528 22.1081 41.0579 20.4994 41.1873 18.7698L41.2075 18.79ZM32.1034 10.1389C31.7739 9.10881 31.1861 8.18057 30.3963 7.44275C29.6064 6.70493 28.6408 6.18219 27.5918 5.92447C27.5918 5.92447 26.5824 5.6617 25.4419 5.5C25.4419 5.5 21.4046 10.715 23.3627 30.3923C23.362 30.4278 23.3737 30.4624 23.3958 30.4901C23.418 30.5178 23.4491 30.5368 23.4838 30.5439C23.5202 30.5534 23.5587 30.5506 23.5933 30.5359C23.628 30.5213 23.6569 30.4957 23.6756 30.4631C24.9675 28.5934 30.8821 19.8108 32.0832 14.4746C32.4371 13.0511 32.4371 11.5624 32.0832 10.1389H32.1034ZM26.542 34.3945C26.5191 34.4232 26.5066 34.4588 26.5066 34.4956C26.5066 34.5323 26.5191 34.568 26.542 34.5967C27.844 35.5366 31.8107 38.3057 33.7183 38.8515C33.7183 38.8515 37.2509 40.0542 40.3092 34.8089L26.643 34.3339C26.6134 34.3346 26.5845 34.3435 26.5596 34.3595C26.5347 34.3756 26.5146 34.3982 26.5017 34.4248L26.542 34.3945ZM44.0336 22.7518C44.0336 22.7518 32.4365 28.9976 26.431 33.0402C26.3981 33.061 26.3732 33.0922 26.3604 33.129C26.3476 33.1657 26.3475 33.2057 26.3603 33.2424C26.3707 33.2717 26.3898 33.2971 26.4151 33.3152C26.4404 33.3333 26.4706 33.3432 26.5017 33.3435C28.6515 33.3435 36.7867 33.3435 36.9885 33.3435C38.4348 33.2312 39.8242 32.7308 41.0107 31.8949C42.1971 31.059 43.1367 29.9186 43.7308 28.5934C44.5361 26.7545 44.6437 24.6847 44.0336 22.772V22.7518ZM17.9931 33.0402C11.9372 28.9976 0.390553 22.7518 0.390553 22.7518C-0.219607 24.6645 -0.111957 26.7343 0.693337 28.5732C1.28739 29.8984 2.22704 31.0388 3.41346 31.8747C4.59989 32.7106 5.98927 33.2109 7.43559 33.3232C7.63745 33.3232 15.7726 33.3232 17.9224 33.3232C17.9535 33.3229 17.9837 33.3131 18.009 33.295C18.0343 33.2769 18.0534 33.2515 18.0638 33.2222C18.0766 33.1855 18.0765 33.1455 18.0637 33.1087C18.0509 33.072 18.026 33.0408 17.9931 33.02V33.0402ZM17.6903 34.344L4.02408 34.819C7.05204 40.0946 10.615 38.8616 10.615 38.8616C12.5226 38.3159 16.4892 35.5467 17.7912 34.6068C17.8142 34.5781 17.8267 34.5424 17.8267 34.5057C17.8267 34.469 17.8142 34.4333 17.7912 34.4046C17.7774 34.3786 17.7572 34.3566 17.7325 34.3407C17.7077 34.3247 17.6793 34.3154 17.6499 34.3137L17.6903 34.344ZM16.7819 5.94467C15.7328 6.2024 14.7672 6.72513 13.9774 7.46295C13.1875 8.20077 12.5998 9.12905 12.2703 10.1591C11.9164 11.5826 11.9164 13.0713 12.2703 14.4948C13.4714 19.831 19.3355 28.6439 20.6779 30.4833C20.6966 30.516 20.7255 30.5415 20.7601 30.5561C20.7948 30.5708 20.8332 30.5736 20.8696 30.5642C20.9044 30.5571 20.9355 30.538 20.9576 30.5103C20.9797 30.4826 20.9915 30.448 20.9908 30.4125C22.9488 10.7352 18.9116 5.5202 18.9116 5.5202C17.8013 5.68191 16.7617 5.94467 16.7617 5.94467H16.7819ZM6.74926 11.4224C6.74926 11.4224 2.90375 14.9698 3.15608 18.79C3.28545 20.5196 4.09053 22.1283 5.39674 23.2673C8.80825 26.5216 16.9131 30.7056 18.8611 31.6759C18.8924 31.6918 18.9269 31.7002 18.962 31.7002C18.9971 31.7002 19.0317 31.6918 19.063 31.6759C19.0852 31.6449 19.0971 31.6078 19.0971 31.5698C19.0971 31.5317 19.0852 31.4946 19.063 31.4636C15.7408 24.3337 11.6017 17.6149 6.72905 11.4426" fill="white"/>
</mask>
<g mask="url(#mask0)">
<rect x="-0.577358" y="5.5" width="46.0038" height="34.9186" fill="url(#paint0_radial)"/>
</g>
<defs>
<radialGradient id="paint0_radial" cx="0" cy="0" r="1" gradientUnits="userSpaceOnUse" gradientTransform="translate(27.9984 9.06916) rotate(90) scale(34.2083)">
<stop stop-color="#F7BC9F"/>
<stop offset="0.183109" stop-color="#EF8058"/>
<stop offset="0.471476" stop-color="#E30011"/>
<stop offset="1" stop-color="#A00000"/>
</radialGradient>
</defs>
</svg>
